<svg width="30" height="30" viewBox="0 0 30 30" fill="none" xmlns="http://www.w3.org/2000/svg">
<path d="M23 0H7C3.13401 0 0 3.13401 0 7V23C0 26.866 3.13401 30 7 30H23C26.866 30 30 26.866 30 23V7C30 3.13401 26.866 0 23 0Z" fill="#D1DFE8"/>
<path d="M20.657 19.657L16.414 23.9C16.2284 24.0858 16.0081 24.2331 15.7656 24.3336C15.523 24.4342 15.2631 24.4859 15.0005 24.4859C14.738 24.4859 14.478 24.4342 14.2354 24.3336C13.9929 24.2331 13.7726 24.0858 13.587 23.9L9.343 19.657C8.22422 18.5382 7.46234 17.1127 7.15369 15.5609C6.84504 14.009 7.00349 12.4005 7.60901 10.9387C8.21452 9.47696 9.2399 8.22755 10.5555 7.34852C11.8711 6.46949 13.4178 6.00031 15 6.00031C16.5822 6.00031 18.1289 6.46949 19.4445 7.34852C20.7601 8.22755 21.7855 9.47696 22.391 10.9387C22.9965 12.4005 23.155 14.009 22.8463 15.5609C22.5377 17.1127 21.7758 18.5382 20.657 19.657V19.657Z" stroke="#5BAC5A" strokeWidth="2" stroke-linecap="round" stroke-linejoin="round"/>
<path d="M18 14C18 14.7956 17.6839 15.5587 17.1213 16.1213C16.5587 16.6839 15.7956 17 15 17C14.2044 17 13.4413 16.6839 12.8787 16.1213C12.3161 15.5587 12 14.7956 12 14C12 13.2044 12.3161 12.4413 12.8787 11.8787C13.4413 11.3161 14.2044 11 15 11C15.7956 11 16.5587 11.3161 17.1213 11.8787C17.6839 12.4413 18 13.2044 18 14V14Z" stroke="#0066FF" strokeWidth="2" stroke-linecap="round" stroke-linejoin="round"/>
</svg>
