<svg width="35" height="35" viewBox="0 0 35 35" fill="none" xmlns="http://www.w3.org/2000/svg">
<path d="M30.625 29.1667C30.625 29.9724 29.9724 30.625 29.1667 30.625H5.83333C5.0276 30.625 4.375 29.9724 4.375 29.1667V5.83333C4.375 5.0276 5.0276 4.375 5.83333 4.375H29.1667C29.9724 4.375 30.625 5.0276 30.625 5.83333V29.1667Z" fill="url(#paint0_linear)"/>
<path opacity="0.05" d="M18.2292 27.7083V19.6875H15.3125V15.3125H18.2292V13.7535C18.2292 10.0771 20.1731 8.05292 23.7016 8.05292C25.1562 8.05292 25.9452 8.155 26.3251 8.20458L26.9507 8.28552L26.9792 8.91333V12.3958H24.3286C23.5061 12.3958 23.3333 13.4006 23.3333 14.2443V15.3125H26.7772L26.1005 19.6875H23.3333V27.7083H18.2292Z" fill="black"/>
<path opacity="0.07" d="M18.5939 27.3437V19.3229H15.6772V15.6771H18.5939V13.7535C18.5939 10.2623 20.36 8.4175 23.7017 8.4175C25.1389 8.4175 25.9111 8.51812 26.283 8.56625L26.6009 8.60781L26.6155 8.9301V12.0312H24.3295C23.1461 12.0312 22.9696 13.4174 22.9696 14.2443V15.6771H26.353L25.7893 19.3229H22.9689V27.3437H18.5939Z" fill="black"/>
<path d="M24.3285 11.6667H26.2498V8.92938C25.8911 8.88271 25.1335 8.78136 23.7014 8.78136C20.7111 8.78136 18.9582 10.298 18.9582 13.7535V16.0417H16.0415V18.9583H18.9582V26.9792H22.604V18.9583H25.4755L25.9261 16.0417H22.604V14.2443C22.604 12.8778 23.0503 11.6667 24.3285 11.6667Z" fill="white"/>
<defs>
<linearGradient id="paint0_linear" x1="4.54125" y1="3.57" x2="30.6811" y2="31.6692" gradientUnits="userSpaceOnUse">
<stop stop-color="#0D61A9"/>
<stop offset="1" stop-color="#16528C"/>
</linearGradient>
</defs>
</svg>
