<svg width="433" height="420" viewBox="0 0 433 420" fill="none" xmlns="http://www.w3.org/2000/svg">
<g clipPath="url(#clip0)">
<path d="M0.623493 355.231H176.049C176.219 355.231 176.382 355.164 176.502 355.044C176.622 354.924 176.69 354.761 176.69 354.591C176.69 354.421 176.622 354.258 176.502 354.138C176.382 354.017 176.219 353.95 176.049 353.95H0.623493C0.4536 353.95 0.290668 354.017 0.170535 354.138C0.0504027 354.258 -0.0170898 354.421 -0.0170898 354.591C-0.0170898 354.761 0.0504027 354.924 0.170535 355.044C0.290668 355.164 0.4536 355.231 0.623493 355.231Z" fill="#E8E8E8"/>
<path d="M87.7172 348.397H337.895C338.065 348.397 338.228 348.329 338.348 348.209C338.468 348.089 338.535 347.926 338.535 347.756C338.535 347.586 338.468 347.423 338.348 347.303C338.228 347.183 338.065 347.115 337.895 347.115H87.7172C87.5474 347.115 87.3844 347.183 87.2643 347.303C87.1442 347.423 87.0767 347.586 87.0767 347.756C87.0767 347.926 87.1442 348.089 87.2643 348.209C87.3844 348.329 87.5474 348.397 87.7172 348.397Z" fill="#E8E8E8"/>
<path d="M262.537 359.503H427.465C427.635 359.503 427.798 359.436 427.918 359.316C428.038 359.195 428.106 359.032 428.106 358.862C428.106 358.693 428.038 358.53 427.918 358.409C427.798 358.289 427.635 358.222 427.465 358.222H262.537C262.367 358.222 262.204 358.289 262.084 358.409C261.963 358.53 261.896 358.693 261.896 358.862C261.896 359.032 261.963 359.195 262.084 359.316C262.204 359.436 262.367 359.503 262.537 359.503Z" fill="#E8E8E8"/>
<path d="M349.707 304.919C349.896 317.503 350.918 330.061 352.765 342.51C352.884 343.322 354.123 342.972 354.003 342.168C352.183 329.832 351.184 317.388 351.014 304.919C351.014 304.749 350.946 304.586 350.826 304.466C350.706 304.345 350.543 304.278 350.373 304.278C350.203 304.278 350.04 304.345 349.92 304.466C349.8 304.586 349.733 304.749 349.733 304.919H349.707Z" fill="#E8E8E8"/>
<path d="M352.022 304.406C367.707 302.433 383.571 302.33 399.28 304.098C400.134 304.192 400.134 302.902 399.28 302.817C383.571 301.048 367.707 301.151 352.022 303.124C351.219 303.227 351.168 304.509 352.022 304.406Z" fill="#E8E8E8"/>
<path d="M399.109 306.875L396.666 339.571C396.606 340.426 397.887 340.426 397.947 339.571L400.39 306.875C400.45 306.021 399.169 306.021 399.109 306.875Z" fill="#E8E8E8"/>
<path d="M354.507 344.022C360.999 347.574 368.319 349.333 375.715 349.116C383.111 348.9 390.316 346.717 396.589 342.792C397.281 342.356 396.64 341.246 395.94 341.681C389.865 345.498 382.883 347.625 375.712 347.843C368.542 348.061 361.443 346.361 355.148 342.92C354.43 342.519 353.781 343.629 354.507 344.022Z" fill="#E8E8E8"/>
<path d="M354.43 302.185C352.635 300.293 351.369 297.962 350.758 295.427C350.544 294.658 350.365 293.872 350.177 293.094C350.049 292.513 349.912 291.932 349.784 291.343C349.64 291.027 349.599 290.674 349.667 290.334C349.734 289.994 349.907 289.683 350.16 289.446C350.45 290.113 351.552 289.634 351.33 288.951C350.587 286.687 350.724 284.354 350.006 282.116C350.254 282.893 351.492 282.56 351.245 281.774L351.159 281.526C351.121 281.393 351.04 281.274 350.929 281.19C350.819 281.105 350.684 281.058 350.544 281.057H350.245C350.132 281.052 350.021 281.08 349.923 281.136C349.825 281.191 349.744 281.274 349.69 281.373C348.511 283.739 349.314 286.935 350.092 289.318L351.262 288.823C350.339 286.721 348.4 288.165 348.212 289.882C347.973 292.052 349.331 295.435 350.057 297.469C350.775 299.599 351.98 301.533 353.576 303.116C353.698 303.229 353.858 303.291 354.024 303.288C354.19 303.285 354.349 303.218 354.466 303.1C354.583 302.983 354.651 302.824 354.653 302.658C354.656 302.492 354.595 302.332 354.482 302.21L354.43 302.185Z" fill="#E8E8E8"/>
<path d="M351.014 281.364C350.792 280.117 348.742 261.765 351.979 262.449C352.782 262.62 353.124 261.381 352.321 261.21C346.154 259.92 349.203 278.485 349.758 281.714C349.904 282.526 351.134 282.184 350.988 281.373L351.014 281.364Z" fill="#E8E8E8"/>
<path d="M354.097 262.543C353.892 261.347 352.979 255.58 355.806 255.614C355.947 255.615 356.085 255.57 356.197 255.485C356.31 255.4 356.392 255.28 356.429 255.144C357.061 251.727 358.59 245.473 361.844 243.422C368.361 239.321 367.695 254.093 367.823 256.793C368.293 265.849 368.447 274.905 368.353 283.97C368.353 284.14 368.42 284.303 368.54 284.423C368.66 284.543 368.823 284.611 368.993 284.611C369.163 284.611 369.326 284.543 369.446 284.423C369.566 284.303 369.634 284.14 369.634 283.97C369.728 274.623 369.557 265.277 369.053 255.947C368.857 252.273 369.907 242.183 364.449 241.218C360.076 240.449 357.198 247.711 356.147 250.821C355.712 252.111 355.515 253.341 354.73 254.349C354.285 254.922 353.73 255.033 353.32 255.657C351.988 257.69 352.466 260.638 352.833 262.884C352.97 263.696 354.209 263.354 354.063 262.543H354.097Z" fill="#E8E8E8"/>
<path d="M369.616 264.542C369.907 263.619 370.573 257.707 372.683 259.416C372.774 259.501 372.888 259.559 373.01 259.581C373.133 259.604 373.26 259.59 373.375 259.542C373.491 259.495 373.59 259.415 373.661 259.312C373.732 259.209 373.772 259.088 373.776 258.963C373.986 256.34 374.82 253.806 376.21 251.573C378.32 248.292 378.311 250.026 379.114 252.162C379.319 252.709 380.199 252.837 380.353 252.162C380.54 250.951 380.967 249.789 381.608 248.745C385.156 246.751 386.804 247.247 386.553 250.231C386.677 252.377 386.677 254.528 386.553 256.673C386.413 261.443 385.976 266.2 385.247 270.915C385.119 271.727 386.357 272.069 386.477 271.257C387.153 266.959 387.586 262.626 387.775 258.279C387.911 254.999 388.86 249.736 387.006 246.788C383.914 241.799 379.729 248.993 379.088 251.829H380.327C379.695 250.12 380.242 247.036 377.483 248.087C374.16 249.352 372.777 256.015 372.469 258.972L373.562 258.519C369.625 255.229 369.053 261.936 368.361 264.166C368.105 264.952 369.343 265.294 369.591 264.508L369.616 264.542Z" fill="#E8E8E8"/>
<path d="M386.938 268.643C386.502 269.566 387.792 266.661 387.894 266.866C387.933 266.999 388.014 267.116 388.125 267.199C388.236 267.282 388.371 267.327 388.509 267.327C388.648 267.327 388.783 267.282 388.894 267.199C389.005 267.116 389.086 266.999 389.124 266.866C389.551 264.206 390.955 263.483 393.335 264.696V266.379C393.813 267.951 393.241 270.531 393.139 272.18C392.884 276.247 392.425 280.299 391.764 284.32C391.627 285.123 392.865 285.474 392.994 284.653C393.626 280.783 394.112 276.887 394.377 272.966C394.539 270.505 395.812 264.713 394.121 262.611C391.823 259.766 388.552 264.499 387.894 266.507H389.124L388.919 265.977C388.874 265.846 388.79 265.731 388.679 265.647C388.568 265.564 388.435 265.515 388.296 265.507C386.665 265.294 386.46 266.661 385.836 267.976C385.477 268.72 386.588 269.369 386.938 268.626V268.643Z" fill="#E8E8E8"/>
<path d="M393.532 280.766C394.249 279.758 395.282 279.507 396.632 280.014C396.487 281.347 396.307 282.68 396.102 284.004C395.829 285.943 395.539 287.883 395.248 289.814L393.438 302.262C393.318 303.065 394.556 303.415 394.676 302.603L396.615 289.318C397.025 286.456 398.451 282.483 397.87 279.587C397.093 275.725 394.377 278.186 392.626 279.852C392.028 280.424 392.934 281.33 393.532 280.758V280.766Z" fill="#E8E8E8"/>
<path d="M8.19938 275.221C35.6078 272.436 61.6838 282.355 87.1021 291.215C112.725 300.134 138.836 306.542 165.919 308.823C181.754 310.137 197.669 310.183 213.511 308.96C214.365 308.891 214.365 307.61 213.511 307.678C185.072 309.881 156.464 307.953 128.578 301.954C102.1 296.221 77.3909 285.106 51.2722 278.22C37.1964 274.512 22.7534 272.462 8.19938 273.948C7.38797 274.034 7.34527 275.315 8.19938 275.23V275.221Z" fill="#E8E8E8"/>
<path d="M119.106 274.606C188.135 290.548 257.104 267.096 323.631 250.625C342.857 245.866 362.228 241.671 381.864 238.988C382.676 238.877 382.326 237.638 381.523 237.749C313.143 247.096 248.281 275.443 178.894 278.408C158.933 279.262 138.938 277.87 119.447 273.367C118.645 273.179 118.303 274.418 119.106 274.606Z" fill="#E8E8E8"/>
<path d="M9.4465 327.175C44.3796 310.139 83.8054 319.289 119.627 328.131C120.43 328.328 120.771 327.089 119.968 326.893C83.7798 317.956 44.0807 308.857 8.80592 326.038C8.06284 326.397 8.71197 327.499 9.45505 327.14L9.4465 327.175Z" fill="#E8E8E8"/>
<path d="M14.7934 162.951C26.5374 168.017 39.1099 170.042 51.7764 171.178C64.8946 172.31 78.0703 172.627 91.2277 172.127C116.954 171.212 142.474 167.564 167.782 162.797C220.07 152.938 271.445 138.175 324.323 131.536C353.363 127.897 382.702 126.897 411.767 130.579C412.621 130.682 412.621 129.4 411.767 129.298C360.794 122.847 309.684 131.006 259.846 141.635C208.907 152.493 158.207 166.146 106.106 170.025C91.7563 171.138 77.3508 171.355 62.9738 170.674C46.8909 169.82 30.3894 168.29 15.4596 161.84C14.708 161.524 14.0588 162.626 14.8105 162.951H14.7934Z" fill="#E8E8E8"/>
<path d="M47.1471 106.393C73.1397 110.191 99.3635 112.189 125.631 112.373C125.801 112.373 125.964 112.306 126.084 112.185C126.204 112.065 126.272 111.902 126.272 111.732C126.272 111.562 126.204 111.399 126.084 111.279C125.964 111.159 125.801 111.092 125.631 111.092C99.4772 110.899 73.3677 108.9 47.4887 105.111C46.6858 104.991 46.3357 106.23 47.1471 106.35V106.393Z" fill="#E8E8E8"/>
<path d="M253.039 72.0732C310.758 52.2258 371.368 42.0951 432.402 42.094C432.572 42.094 432.735 42.0265 432.855 41.9063C432.975 41.7861 433.043 41.6232 433.043 41.4532C433.043 41.2833 432.975 41.1203 432.855 41.0001C432.735 40.88 432.572 40.8125 432.402 40.8125C371.261 40.8133 310.544 50.9612 252.723 70.843C251.946 71.1078 252.279 72.3466 253.065 72.0732H253.039Z" fill="#E8E8E8"/>
<path d="M11.932 58.7197L45.174 72.5004C45.9342 72.8165 46.2673 71.5777 45.5156 71.2616L12.2309 57.4809C11.4708 57.1648 11.1377 58.4036 11.8893 58.7197H11.932Z" fill="#E8E8E8"/>
<path d="M51.3237 223.516C54.6493 223.516 57.3452 220.819 57.3452 217.493C57.3452 214.166 54.6493 211.469 51.3237 211.469C47.9982 211.469 45.3022 214.166 45.3022 217.493C45.3022 220.819 47.9982 223.516 51.3237 223.516Z" fill="#027FFA"/>
<path d="M328.568 225.37C330.422 225.37 331.925 223.867 331.925 222.012C331.925 220.158 330.422 218.655 328.568 218.655C326.714 218.655 325.211 220.158 325.211 222.012C325.211 223.867 326.714 225.37 328.568 225.37Z" fill="#027FFA"/>
<path d="M236.563 38.7535C240.605 38.7535 243.883 35.4754 243.883 31.4317C243.883 27.3879 240.605 24.1098 236.563 24.1098C232.52 24.1098 229.243 27.3879 229.243 31.4317C229.243 35.4754 232.52 38.7535 236.563 38.7535Z" stroke="#027FFA" strokeMiterlimit="10"/>
<path d="M31.8841 313.291C33.653 313.291 35.087 311.857 35.087 310.087C35.087 308.318 33.653 306.884 31.8841 306.884C30.1151 306.884 28.6812 308.318 28.6812 310.087C28.6812 311.857 30.1151 313.291 31.8841 313.291Z" stroke="#027FFA" strokeMiterlimit="10"/>
<path d="M357.966 19.9833C359.702 19.9833 361.11 18.5757 361.11 16.8393C361.11 15.1029 359.702 13.6953 357.966 13.6953C356.23 13.6953 354.823 15.1029 354.823 16.8393C354.823 18.5757 356.23 19.9833 357.966 19.9833Z" stroke="#027FFA" strokeMiterlimit="10"/>
<path d="M58.3616 144.369C60.1965 144.369 61.684 142.881 61.684 141.045C61.684 139.21 60.1965 137.722 58.3616 137.722C56.5266 137.722 55.0391 139.21 55.0391 141.045C55.0391 142.881 56.5266 144.369 58.3616 144.369Z" stroke="#461EB8" strokeMiterlimit="10"/>
<path d="M332.89 243.721C333.423 243.721 333.855 243.289 333.855 242.756C333.855 242.223 333.423 241.79 332.89 241.79C332.357 241.79 331.925 242.223 331.925 242.756C331.925 243.289 332.357 243.721 332.89 243.721Z" stroke="#461EB8" strokeMiterlimit="10"/>
<path d="M329.046 295.427C331.169 295.427 332.89 293.706 332.89 291.582C332.89 289.459 331.169 287.738 329.046 287.738C326.923 287.738 325.203 289.459 325.203 291.582C325.203 293.706 326.923 295.427 329.046 295.427Z" fill="#461EB8"/>
<path d="M307.206 117.773C308.919 117.773 310.307 116.384 310.307 114.671C310.307 112.958 308.919 111.57 307.206 111.57C305.494 111.57 304.106 112.958 304.106 114.671C304.106 116.384 305.494 117.773 307.206 117.773Z" fill="#461EB8"/>
<path d="M306.797 115.577C307.137 115.577 307.462 115.442 307.703 115.202C307.943 114.961 308.078 114.635 308.078 114.295C308.078 113.955 307.943 113.63 307.703 113.389C307.462 113.149 307.137 113.014 306.797 113.014C306.457 113.014 306.131 113.149 305.891 113.389C305.651 113.63 305.516 113.955 305.516 114.295C305.516 114.635 305.651 114.961 305.891 115.202C306.131 115.442 306.457 115.577 306.797 115.577Z" fill="#461EB8"/>
<path d="M71.0362 183.959C72.5651 182.524 74.4527 183.729 75.1787 185.284C75.4219 185.701 75.5488 186.176 75.546 186.659C75.7339 187.12 75.546 187.274 75.0335 187.112C74.1111 187.223 74.2733 187.069 75.4947 186.633C77.8777 186.087 80.1667 188.667 79.7653 190.905C79.6371 191.717 80.8671 192.059 81.0037 191.247C81.112 190.58 81.0873 189.898 80.931 189.24C80.7746 188.582 80.4898 187.962 80.0929 187.415C79.696 186.868 79.1948 186.405 78.6182 186.052C78.0416 185.699 77.4009 185.464 76.7332 185.36C76.0744 185.225 75.391 185.273 74.7581 185.501C74.1252 185.728 73.5673 186.126 73.1459 186.651C72.976 186.845 72.8471 187.071 72.767 187.316C72.6868 187.561 72.657 187.82 72.6793 188.077C72.7016 188.334 72.7757 188.584 72.897 188.811C73.0182 189.039 73.1843 189.24 73.3851 189.402C75.8534 191.162 77.109 187.419 76.6307 185.625C75.862 182.721 72.5822 180.704 70.0882 183.062C69.4818 183.626 70.3957 184.532 70.9935 183.968L71.0362 183.959Z" fill="#461EB8"/>
<path d="M196.42 76.6013C196.863 76.7626 197.339 76.8097 197.805 76.738C198.271 76.6663 198.711 76.4782 199.085 76.1911C199.459 75.9041 199.754 75.5273 199.943 75.0957C200.133 74.6642 200.211 74.1917 200.169 73.7221C200.169 73.5522 200.102 73.3892 199.982 73.269C199.862 73.1489 199.699 73.0814 199.529 73.0814C198.859 73.0968 198.208 73.3049 197.653 73.681C197.099 74.057 196.665 74.585 196.402 75.2016C196.14 75.8182 196.061 76.4974 196.175 77.1578C196.288 77.8182 196.59 78.4318 197.043 78.9251C199.606 81.7701 203.458 79.976 205.26 77.2933C205.661 76.6953 204.722 75.9605 204.252 76.5159C200.562 80.8816 205.106 85.3328 209.479 86.2982C210.282 86.4776 210.624 85.2388 209.821 85.0594C206.584 84.3417 202.134 81.0183 205.157 77.4215L204.15 76.6526C203.236 78.0195 202.074 79.0277 200.366 79.002C199.965 79.0685 199.554 79.0346 199.17 78.9034C198.785 78.7722 198.439 78.5478 198.162 78.2502C196.762 76.3963 197.223 75.1062 199.529 74.3629L198.888 73.7221L196.762 75.371C195.976 75.1147 195.643 76.345 196.42 76.6013Z" fill="#461EB8"/>
<path d="M298.059 174.45C298.685 173.078 299.719 173.018 301.159 174.271C301.288 176.091 300.775 176.492 299.605 175.484C299.238 174.792 300.211 172.853 300.536 172.332C301.268 171.174 302.365 170.293 303.654 169.829C304.942 169.365 306.349 169.344 307.651 169.769C307.788 169.799 307.931 169.787 308.061 169.734C308.191 169.68 308.301 169.588 308.377 169.469L309.88 167.428C310.367 166.761 309.256 166.12 308.77 166.778L307.275 168.82L307.992 168.53C306.473 168.053 304.842 168.072 303.335 168.583C301.827 169.095 300.521 170.072 299.605 171.375C298.665 172.759 296.957 177.603 299.981 177.629C302.15 177.629 303.107 174.664 301.996 173.083C300.681 171.204 297.845 171.896 296.957 173.775C296.598 174.519 297.709 175.168 298.059 174.425V174.45Z" fill="#461EB8"/>
<path d="M322.418 37.7795C320.761 39.6249 319.898 42.487 322.845 43.572C324.553 44.1957 326.321 43.572 327.97 44.3666C328.705 44.6654 329.326 45.1886 329.746 45.8617C330.301 46.7132 330.598 47.7072 330.6 48.7238C332.407 47.8384 334.456 47.5799 336.425 47.989C338.04 48.2539 338.732 45.7848 337.109 45.5199C334.786 45.1355 329.345 44.8877 328.166 47.6814C327.363 49.6037 329.789 51.2783 331.48 50.4325C334.042 49.168 332.881 45.6054 331.48 43.9394C330.588 42.8506 329.402 42.0411 328.064 41.607C326.817 41.214 322.179 41.8548 324.203 39.5907C325.296 38.369 323.494 36.5492 322.392 37.7795H322.418Z" fill="#027FFA"/>
<path d="M37.8027 393.865H254.499C254.669 393.865 254.832 393.798 254.952 393.678C255.072 393.557 255.14 393.394 255.14 393.225C255.14 393.055 255.072 392.892 254.952 392.772C254.832 392.651 254.669 392.584 254.499 392.584H37.8027C37.6328 392.584 37.4699 392.651 37.3497 392.772C37.2296 392.892 37.1621 393.055 37.1621 393.225C37.1621 393.394 37.2296 393.557 37.3497 393.678C37.4699 393.798 37.6328 393.865 37.8027 393.865Z" fill="#E8E8E8"/>
<path d="M214.997 410.115H375.954C376.124 410.115 376.287 410.048 376.407 409.927C376.527 409.807 376.594 409.644 376.594 409.474C376.594 409.304 376.527 409.141 376.407 409.021C376.287 408.901 376.124 408.834 375.954 408.834H214.997C214.827 408.834 214.664 408.901 214.544 409.021C214.423 409.141 214.356 409.304 214.356 409.474C214.356 409.644 214.423 409.807 214.544 409.927C214.664 410.048 214.827 410.115 214.997 410.115Z" fill="#E8E8E8"/>
<path d="M238.425 369.491C236.461 370.832 235.479 372.635 233.523 376.24C230.875 381.101 231.541 382.315 228.68 389.67C226.416 395.489 225.212 396.787 226.006 398.701C226.997 401.093 230.098 401.948 234.266 402.819C247.308 405.561 254.132 405.561 254.132 405.561C262.204 405.561 271.479 405.365 281.78 404.801C281.883 403.153 281.657 401.501 281.115 399.942C280.572 398.382 279.724 396.947 278.62 395.719C277.171 394.241 275.36 393.168 273.367 392.609C269.78 391.593 267.448 392.746 263.118 393.566C258.668 394.421 250.656 395.907 248.042 392.601C246.257 390.345 247.59 386.475 249.016 382.349C250.49 378.095 252.772 374.167 255.738 370.781C254.201 369.986 244.643 365.236 238.425 369.491Z" fill="black"/>
<path d="M206.336 318.776C210.043 315.513 215.646 310.523 222.376 304.338C241.167 287.063 249.323 278.212 264.731 266.14C279.806 254.324 287.792 250.394 296.863 250.531C299.596 250.573 308.06 250.71 312.1 256.391C314.458 259.723 314.295 263.534 314.031 268.19C313.621 275.478 311.468 280.066 308.3 288.481C304.883 297.511 306.967 293.197 301.971 306.79C299.511 313.479 295.138 325.338 288.442 340.733C283.787 351.472 278.235 363.391 271.658 376.189C265.482 378.632 258.851 379.71 252.219 379.35C242.887 378.756 233.947 375.379 226.553 369.653L239.364 343.493C228.928 348.759 217.365 351.398 205.678 351.182C202.637 346.295 201.078 340.631 201.192 334.876C201.306 329.12 203.087 323.522 206.319 318.759L206.336 318.776Z" fill="white"/>
<path opacity="0.21" d="M219.805 337.008C226.044 329.104 233.503 322.245 241.901 316.692C251.63 309.968 265.295 298.144 282.181 275.734C280.473 279.929 277.996 286.336 275.135 294.197C263.715 325.534 257.643 342.177 262.374 345.902C264.988 347.952 272.026 346.944 292.951 330.071L271.659 376.206C268.238 377.51 264.669 378.386 261.033 378.812C245.121 380.666 232.523 373.241 227.552 369.884C230.764 361.448 233.981 353.013 237.204 344.578L210.564 351.489C213.182 346.382 216.276 341.534 219.805 337.008Z" fill="#919191"/>
<path d="M213.647 315.496C223.537 303.388 234.413 292.12 246.163 281.808C257.839 271.556 270.804 260.45 285.205 254.324C292.311 251.282 304.32 248.096 310.281 254.913C315.953 261.415 313.143 270.881 310.913 278.143C306.159 293.607 300.778 308.86 294.771 323.902C287.71 341.587 279.821 358.908 271.103 375.864C270.727 376.599 271.838 377.248 272.214 376.513C288.792 344.151 303.346 309.993 313.211 274.948C314.919 268.788 316.064 261.757 312.587 255.956C309.393 250.633 303.457 249.428 297.64 249.83C281.737 250.924 267.678 262.722 255.712 272.197C239.908 284.743 225.501 298.956 212.742 314.59C212.229 315.222 213.126 316.128 213.647 315.496Z" fill="black"/>
<path d="M281.335 277.485C259.059 305.62 240.463 336.484 225.998 369.328C225.673 370.072 226.775 370.729 227.108 369.969C241.51 337.202 260.038 306.41 282.241 278.34C282.745 277.699 281.848 276.785 281.335 277.434V277.485Z" fill="black"/>
<path d="M227.1 370.319C231.84 376.257 240.193 378.649 247.445 379.606C255.346 380.622 263.376 379.659 270.813 376.804C271.582 376.522 271.249 375.283 270.48 375.574C263.668 378.193 256.342 379.199 249.076 378.513C241.637 377.778 232.848 375.471 228.005 369.414C227.484 368.773 226.587 369.687 227.1 370.319Z" fill="black"/>
<path d="M232.908 376.069C231.413 379.956 229.978 383.861 228.637 387.799C227.578 390.892 225.699 394.532 225.46 397.778C225.101 402.614 231.549 402.768 235.094 403.707C250.024 407.672 265.535 405.878 280.798 405.416C280.967 405.416 281.13 405.349 281.251 405.229C281.371 405.108 281.438 404.945 281.438 404.775C281.438 404.605 281.371 404.443 281.251 404.322C281.13 404.202 280.967 404.135 280.798 404.135C267.986 404.519 254.269 406.347 241.602 403.904C238.75 403.357 235.94 402.622 233.147 401.836C232.062 401.537 229.483 401.162 228.577 400.512C225.878 398.598 227.219 396.24 227.911 394.053C229.816 388.073 231.908 382.229 234.137 376.402C234.436 375.633 233.198 375.3 232.908 376.061V376.069Z" fill="black"/>
<path d="M250.229 379.427C247.757 382.859 245.867 386.675 244.634 390.721C244.395 391.516 245.625 391.849 245.873 391.063C247.08 387.123 248.927 383.408 251.339 380.068C251.817 379.401 250.707 378.76 250.229 379.427Z" fill="black"/>
<path d="M244.925 391.738C250.143 394.428 256.075 395.405 261.879 394.532C266.286 393.84 270.873 391.858 275.212 394.002C277.169 394.995 278.781 396.555 279.838 398.478C280.896 400.402 281.349 402.599 281.139 404.784C281.071 405.638 282.352 405.638 282.42 404.784C282.674 401.949 281.928 399.115 280.309 396.774C278.691 394.432 276.304 392.732 273.563 391.969C270.036 391.114 266.491 392.293 263.041 392.943C257.121 394.145 250.969 393.321 245.574 390.602C244.84 390.243 244.19 391.345 244.925 391.712V391.738Z" fill="black"/>
<path d="M199.836 364.108C209.727 366.082 219.6 364.758 229.457 363.254C230.268 363.126 229.927 361.895 229.115 362.015C219.481 363.485 209.846 364.792 200.178 362.869C199.375 362.707 199.033 363.937 199.836 364.1V364.108Z" fill="black"/>
<path d="M199.247 373.506C202.902 373.668 205.994 373.908 208.368 374.113C213.22 374.54 214.475 374.83 215.714 375.762C216.346 376.232 217.823 377.513 219.13 382.161C220.189 386.048 220.164 388.884 220.198 394.301C220.198 401.238 220.275 404.75 220.505 406.732C220.95 410.559 221.829 418.138 224.844 418.693C226.365 418.992 227.842 417.411 228.355 416.873C231.558 413.456 231.002 408.577 230.78 402.99C230.302 391.029 232.07 393.472 231.447 381.845C231.117 375.576 230.311 369.341 229.038 363.194L200.058 363.459L199.247 373.506Z" fill="black"/>
<path d="M175.784 304.389C169.087 303.645 162.357 303.24 155.619 303.176C138.229 302.996 125.255 305.149 115.339 306.841C100.144 309.404 92.3463 310.831 82.3874 315.632C69.4561 321.869 64.7671 328.106 62.8368 331.07C59.4547 335.885 57.568 341.591 57.4132 347.474C57.2991 351.535 58.1787 355.561 59.9755 359.204C63.204 365.501 68.7216 368.799 73.6413 371.251C88.648 378.658 103.535 380.768 108.13 381.392C130.833 384.442 149.128 385.527 174.794 387.227C183.471 387.799 190.449 388.278 194.438 388.543C199.044 377.618 201.369 365.866 201.271 354.01C204.013 353.962 206.709 353.302 209.163 352.079C221.462 345.774 221.334 326.517 221.274 323.612C221.138 317.76 220.813 303.355 210.111 296.956C200.639 291.241 186.222 293.94 175.784 304.389Z" fill="white"/>
<path opacity="0.18" d="M77.6469 318.007C72.2404 324.389 70.4553 329.823 71.335 334.462C74.1023 349.149 104.594 362.058 199.887 365.219C199.683 373.282 197.844 381.22 194.481 388.551C178.637 387.449 166.124 386.638 158.719 386.168C136.52 384.933 114.421 382.305 92.5511 378.299C82.7288 376.437 72.155 374.096 64.5192 365.236C62.9647 363.433 58.4636 358.076 57.524 350.575C56.0208 338.58 64.1605 325.85 77.6469 318.007Z" fill="#919191"/>
<path d="M168.994 302.714C148.27 301.925 127.526 303.606 107.199 307.721C90.3476 311.138 71.3692 316.333 61.5726 331.814C53.2279 344.996 56.0721 361.802 69.7464 369.892C77.4334 374.454 86.5981 376.881 95.1989 379.102C104.476 381.478 113.888 383.287 123.385 384.519C146.633 387.629 170.13 387.936 193.55 388.081C193.72 388.081 193.883 388.014 194.003 387.894C194.123 387.774 194.19 387.611 194.19 387.441C194.19 387.271 194.123 387.108 194.003 386.988C193.883 386.867 193.72 386.8 193.55 386.8C157.105 386.535 119.857 386.048 84.83 374.779C76.9808 372.216 68.3713 369.269 62.9733 362.647C56.9006 355.18 56.7383 344.381 60.7356 335.923C68.7386 319.015 88.2636 313.061 105.149 309.438C126.124 304.987 147.568 303.15 168.994 303.97C169.848 303.97 169.848 302.714 168.994 302.689V302.714Z" fill="black"/>
<path d="M119.481 338.7C145.629 342.556 171.821 345.973 198.06 348.952C198.914 349.046 198.914 347.764 198.06 347.67C171.918 344.726 145.825 341.337 119.78 337.504C118.977 337.384 118.627 338.614 119.447 338.734L119.481 338.7Z" fill="black"/>
<path d="M199.435 349.251C201.063 362.51 199.163 375.964 193.925 388.252C193.609 388.996 194.711 389.653 195.036 388.893C200.382 376.409 202.332 362.733 200.69 349.251C200.588 348.448 199.306 348.397 199.409 349.251H199.435Z" fill="black"/>
<path d="M199.247 374.147C205.482 374.566 215.475 373.293 217.934 380.435C219.805 385.834 219.523 391.858 219.506 397.522C219.506 402.366 219.506 407.313 220.779 412.046C221.402 414.319 222.829 419.573 225.767 420.009C228.406 420.402 228.841 417.445 229.286 415.574C230.575 409.823 231.431 403.983 231.848 398.103C232.713 386.379 231.954 374.591 229.593 363.074C229.431 362.22 228.192 362.605 228.355 363.416C230.578 374.287 231.359 385.404 230.678 396.48C230.313 402.249 229.54 407.984 228.363 413.644C228.013 415.352 227.893 419.462 224.263 417.061C223.503 416.565 222.88 414.31 222.598 413.55C221.664 410.833 221.106 408.002 220.941 405.134C220.292 396.591 222.154 387.065 218.729 378.923C215.688 371.678 205.669 373.267 199.229 372.84C198.375 372.788 198.375 374.07 199.229 374.121L199.247 374.147Z" fill="black"/>
<path d="M201.34 354.651C204.652 354.347 207.885 353.459 210.888 352.028C211.632 351.677 210.982 350.567 210.239 350.917C207.441 352.254 204.428 353.084 201.34 353.369C200.528 353.446 200.485 354.727 201.34 354.651Z" fill="black"/>
<path d="M108.378 102.719C107.729 106.333 107.028 109.212 106.499 111.194C105.645 114.535 105.038 116.004 105.542 118.174C105.905 119.96 106.87 121.568 108.275 122.728C108.815 123.147 109.41 123.489 110.043 123.744C109.947 129.816 109.85 135.893 109.753 141.976L115.86 141.703C115.063 124.223 115.103 115.443 115.979 115.363C116.492 115.312 117.295 118.279 118.388 124.266C118.957 130.052 119.666 136.007 120.515 142.13C122.399 155.413 124.965 168.59 128.202 181.61C129.739 185.027 131.41 188.487 133.215 191.99C141.413 207.816 151.521 222.576 163.314 235.938C165.227 233.819 170.736 227.155 170.643 217.74C170.61 215.124 170.163 212.528 169.319 210.051C166.158 206.207 162.964 202.114 159.778 197.757C154.295 190.264 149.529 182.96 145.378 176.022C145.002 174.211 144.396 171.486 143.49 168.222C140.527 157.577 138.024 154.159 132.942 140.763C129.62 132.006 127.954 127.623 127.194 123.275C126.34 118.148 125.127 113.022 124.461 107.854C123.931 103.778 123.675 100.54 121.172 98.6436C119.165 97.1229 116.586 97.1399 114.852 97.3706C115.194 86.0647 115.53 74.7587 115.86 63.4528C123.162 63.1111 130.824 62.9829 138.81 63.1282C142.528 63.1965 146.167 63.3218 149.725 63.5041C149.264 60.343 148.891 57.0736 148.606 53.6961C147.276 36.872 148.614 19.9432 152.57 3.53702C147.556 2.68267 142.32 1.96501 136.811 1.46949C114.255 -0.495288 91.5293 1.36489 69.5927 6.97152C68.8838 11.6534 68.3371 16.6343 68.0296 21.88C67.0991 38.2162 68.6046 54.5999 72.4967 70.4927L110.769 63.8287C109.984 76.7978 109.186 89.7612 108.378 102.719Z" fill="white"/>
<path opacity="0.36" d="M108.13 104.052C107.618 106.34 107.839 108.731 108.762 110.886C111.325 116.764 118.371 117.602 118.73 117.636C121.188 131.878 124.419 145.975 128.407 159.867C132.464 173.972 134.855 182.148 139.843 192.135C146.024 204.421 154.172 215.612 163.964 225.267L165.962 243.73C163.4 239.304 159.77 233.255 154.987 226.293C149.683 218.552 147.061 215.622 142.756 208.966C138.86 203.085 135.433 196.906 132.507 190.487C129.562 183.793 127.207 176.855 125.469 169.751C121.516 154.438 118.577 138.881 116.671 123.181C116.296 129.446 115.923 135.691 115.553 141.917L109.745 141.481L109.343 124.941C107.461 122.622 106.187 119.871 105.636 116.935C104.885 112.48 105.77 107.904 108.13 104.052Z" fill="#919191"/>
<path opacity="0.22" d="M69.627 6.99715C69.4253 13.6546 70.6574 20.2775 73.2399 26.4166C83.2671 49.8515 113.742 63.5639 150.11 62.906C124.057 62.4333 98.0374 64.9878 72.5737 70.5183C68.2056 49.6375 67.2251 28.1896 69.6697 6.99715H69.627Z" fill="#919191"/>
<path d="M169.805 209.624C160.762 198.775 152.616 187.209 145.446 175.04C145.355 174.905 145.216 174.809 145.056 174.773C144.897 174.737 144.73 174.763 144.59 174.846C144.449 174.929 144.346 175.062 144.3 175.219C144.254 175.376 144.27 175.544 144.344 175.689C151.574 187.946 159.783 199.597 168.891 210.53C169.421 211.162 170.326 210.248 169.805 209.624Z" fill="black"/>
<path d="M144.874 177.176C146.146 166.471 139.39 155.116 135.479 145.462C131.08 134.501 127.057 123.369 125.759 111.57C125.673 110.716 124.392 110.716 124.478 111.57C125.682 122.472 129.107 132.809 133.113 142.967C135.163 148.17 137.383 153.322 139.373 158.525C141.714 164.506 144.344 170.614 143.567 177.176C143.473 178.03 144.754 178.03 144.848 177.176H144.874Z" fill="black"/>
<path d="M117.747 124.266C119.588 143.31 122.851 162.19 127.51 180.747C127.532 180.828 127.571 180.904 127.622 180.971C127.674 181.038 127.739 181.093 127.812 181.135C127.885 181.177 127.966 181.203 128.05 181.214C128.134 181.224 128.219 181.218 128.3 181.195C128.381 181.173 128.457 181.135 128.524 181.083C128.591 181.031 128.646 180.967 128.688 180.893C128.729 180.82 128.756 180.739 128.767 180.655C128.777 180.571 128.771 180.487 128.748 180.405C124.112 161.961 120.863 143.195 119.029 124.266C118.952 123.454 117.671 123.411 117.747 124.266Z" fill="black"/>
<path d="M129.034 183.9C137.399 203.23 148.501 221.213 161.988 237.277C162.566 237.967 163.53 236.969 162.961 236.288C149.56 220.309 138.532 202.424 130.227 183.201C129.869 182.37 128.685 183.089 129.034 183.9Z" fill="black"/>
<path d="M125.434 108.853C124.745 105.984 123.872 103.161 122.821 100.404C122.214 98.9939 121.753 97.9687 120.258 97.3535C116.398 95.7474 111.094 97.7465 107.78 99.7201C107.683 99.7762 107.602 99.8573 107.547 99.9549C107.491 100.052 107.463 100.163 107.464 100.275C107.583 104.479 113.357 104.205 116.236 103.505C117.038 103.308 116.697 102.07 115.894 102.266C114.679 102.593 113.416 102.708 112.162 102.608C111 102.497 108.839 102.018 109.411 100.241C109.847 98.9085 115.552 98.225 116.748 98.2079C117.673 98.1116 118.608 98.184 119.507 98.4215C121.215 99.1391 121.659 101.027 122.163 102.539C122.898 104.735 123.555 106.956 124.17 109.195C124.216 109.359 124.324 109.499 124.472 109.583C124.621 109.667 124.796 109.689 124.96 109.643C125.125 109.598 125.264 109.489 125.348 109.341C125.432 109.193 125.454 109.017 125.409 108.853H125.434Z" fill="black"/>
<path d="M107.763 102.548C106.464 107.262 105.55 112.074 105.03 116.935C104.714 120.421 106.046 122.506 109.3 123.907C111.008 124.659 112.793 125.035 113.571 122.847C114.493 120.182 110.872 118.114 109.924 116.158C109.565 115.415 108.463 116.064 108.822 116.807C109.181 117.55 110.59 118.738 110.786 119.43C110.718 122.426 109.918 123.28 108.386 121.993C107.545 121.151 106.934 120.107 106.611 118.961C106.288 117.816 106.264 116.606 106.541 115.449C106.695 111.297 108.01 106.905 109.044 102.915C109.073 102.758 109.043 102.595 108.958 102.458C108.873 102.322 108.74 102.223 108.586 102.18C108.431 102.137 108.266 102.154 108.123 102.226C107.98 102.299 107.87 102.423 107.814 102.574L107.763 102.548Z" fill="black"/>
<path d="M105.884 113.535C107.686 115.671 111.794 119.968 114.912 117.807C116.278 116.867 116.962 114.868 117.474 113.373C118.248 111.373 118.391 109.185 117.884 107.102C117.828 106.951 117.718 106.827 117.575 106.754C117.432 106.682 117.267 106.665 117.112 106.708C116.958 106.751 116.825 106.85 116.74 106.986C116.655 107.123 116.625 107.286 116.654 107.443C117.286 109.938 116.697 114.039 114.809 115.987C114.118 116.713 112.247 116.841 111.282 116.465C110.571 116.115 109.912 115.667 109.326 115.133C108.392 114.362 107.534 113.504 106.764 112.57C106.226 111.937 105.329 112.843 105.858 113.475L105.884 113.535Z" fill="black"/>
<path d="M113.938 103.445C114.447 104.009 115.095 104.43 115.817 104.667C116.458 104.94 117.628 105.453 117.269 106.376C116.962 107.136 118.2 107.469 118.508 106.709C118.653 106.235 118.637 105.726 118.463 105.262C118.288 104.798 117.964 104.406 117.543 104.146C116.688 103.505 115.518 103.411 114.844 102.548C114.331 101.899 113.426 102.813 113.938 103.454V103.445Z" fill="black"/>
<path d="M109.616 123.48C109.009 129.625 108.84 135.807 109.112 141.976C109.112 142.831 110.428 142.831 110.394 141.976C110.121 135.807 110.29 129.625 110.898 123.48C110.974 122.625 109.693 122.625 109.616 123.48Z" fill="black"/>
<path d="M109.531 142.566C111.574 143.01 113.689 143.01 115.732 142.566C116.543 142.386 116.202 141.148 115.399 141.327C113.579 141.729 111.693 141.729 109.873 141.327C109.07 141.156 108.728 142.386 109.531 142.566Z" fill="black"/>
<path d="M115.219 116.465V141.703C115.219 141.873 115.287 142.036 115.407 142.156C115.527 142.276 115.69 142.344 115.86 142.344C116.03 142.344 116.193 142.276 116.313 142.156C116.433 142.036 116.5 141.873 116.5 141.703V116.465C116.5 116.295 116.433 116.132 116.313 116.012C116.193 115.892 116.03 115.825 115.86 115.825C115.69 115.825 115.527 115.892 115.407 116.012C115.287 116.132 115.219 116.295 115.219 116.465Z" fill="black"/>
<path d="M109.616 64.0338C109.52 75.6245 109.235 87.2152 108.762 98.8059C108.762 99.6603 110.009 99.6603 110.043 98.8059C110.516 87.2209 110.801 75.6302 110.897 64.0338C110.897 63.8638 110.83 63.7008 110.71 63.5807C110.59 63.4605 110.427 63.393 110.257 63.393C110.087 63.393 109.924 63.4605 109.804 63.5807C109.684 63.7008 109.616 63.8638 109.616 64.0338Z" fill="black"/>
<path d="M115.279 63.4784C115.142 74.7901 114.806 86.096 114.271 97.3963C114.271 98.2506 115.518 98.2506 115.552 97.3963C116.087 86.0903 116.423 74.7844 116.56 63.4784C116.56 63.3085 116.493 63.1455 116.372 63.0253C116.252 62.9052 116.089 62.8377 115.919 62.8377C115.75 62.8377 115.587 62.9052 115.466 63.0253C115.346 63.1455 115.279 63.3085 115.279 63.4784Z" fill="black"/>
<path d="M73.6242 71.048C98.5471 65.1491 124.183 62.8333 149.76 64.1705C150.614 64.2132 150.614 62.9317 149.76 62.8889C124.068 61.5487 98.3166 63.8788 73.2825 69.8092C72.4797 70.0057 72.8213 71.236 73.6242 71.048Z" fill="black"/>
<path d="M67.893 8.24451C66.6678 29.1453 68.016 50.1175 71.9073 70.6892C72.061 71.5435 73.2995 71.1505 73.1457 70.3474C69.2759 49.8883 67.9363 29.0308 69.1571 8.24451C69.1571 7.39016 67.9186 7.39016 67.8759 8.24451H67.893Z" fill="black"/>
<path d="M72.0612 6.77501C98.1165 0.452531 125.196 -0.420041 151.604 4.21196C152.407 4.34865 152.758 3.11839 151.946 2.97315C125.313 -1.70483 98.0004 -0.832266 71.7195 5.53621C70.9167 5.73271 71.2583 6.97152 72.0612 6.77501Z" fill="black"/>
<path d="M152.006 3.39178C150.503 13.4646 149.358 23.5887 148.658 33.747C147.983 43.4524 146.95 53.5594 149.512 63.0769C149.568 63.2273 149.678 63.3512 149.821 63.4241C149.964 63.497 150.129 63.5137 150.284 63.4707C150.438 63.4278 150.571 63.3284 150.656 63.1922C150.741 63.056 150.771 62.8929 150.742 62.7352C148.291 53.3373 149.298 43.3157 149.965 33.747C150.659 23.6998 151.761 13.6953 153.27 3.73353C153.39 2.87917 152.16 2.58015 152.032 3.39178H152.006Z" fill="black"/>
<path d="M169.705 210.497C165.951 218.262 163.597 226.629 162.753 235.214C161.801 247.003 163.148 258.866 166.718 270.141C167.284 271.744 167.887 273.263 168.477 274.751C170.615 280.138 172.594 285.124 172.098 292.257L169.705 210.497ZM169.705 210.497C176.635 208.556 183.788 207.521 190.985 207.416C205.563 207.289 219.935 210.844 232.771 217.75C232.025 235.879 231.46 254.289 231.075 272.981C230.826 285.149 230.667 297.171 230.598 309.048C211.72 321.414 191.077 323.48 178.439 314.214C174.622 311.359 171.557 307.619 169.507 303.317C170.96 299.794 171.835 296.06 172.098 292.258L169.705 210.497Z" fill="#027FFA" stroke="black"/>
<path d="M227.168 219.868C226.79 220.362 226.515 220.926 226.356 221.527C226.198 222.128 226.16 222.755 226.245 223.371C226.818 231.41 222.41 236.263 224.392 260.723C225.128 269.815 226.516 278.843 228.543 287.738C228.176 290.668 227.595 295.478 227.005 301.407C225.972 311.907 225.69 318.101 224.58 333.445C224.306 337.307 223.871 343.185 223.299 350.439C221.915 353.13 219.882 357.137 217.679 362.1C215.185 367.602 211.469 375.83 212.357 376.334C212.708 376.539 213.938 375.565 218.037 369.832C217.909 372.566 217.619 376.727 216.893 381.793C215.509 391.371 213.536 397.231 214.33 397.565C214.775 397.736 216.039 396.36 219.968 388.722C219.005 395.87 219.051 399.598 220.104 399.906C221.499 400.316 224.659 394.703 229.585 383.066C230.114 392.738 230.84 394.617 231.396 394.643C232.352 394.694 233.907 389.072 233.702 383.331C233.574 379.589 232.796 378.795 231.823 373.703C230.871 368.517 230.499 363.242 230.712 357.974C231.003 352.591 232.07 348.918 233.275 344.535C237.46 329.046 235.478 332.839 240.33 314.496C244.668 298.101 245.992 296.025 246.206 288.737C246.334 284.525 246.035 280.245 245.634 274.478C245.232 268.711 244.856 263.371 243.806 256.733C240.492 235.733 235.427 232.811 234.65 223.832C234.573 222.978 234.411 220.526 232.719 219.364C231.864 218.836 230.861 218.6 229.86 218.69C228.859 218.781 227.914 219.194 227.168 219.868Z" fill="white"/>
<path opacity="0.22" d="M231.37 220.628C230.302 220.936 234.598 232.299 236.537 251.624C238.587 272.035 236.648 287.806 233.172 314.735C231.822 325.158 229.678 339.648 226.211 356.957C227.15 361.195 227.6 365.526 227.552 369.867C227.338 386.099 220.027 398.607 221.428 399.282C222.06 399.581 223.794 397.146 224.639 395.959C227.619 391.701 229.301 386.671 229.482 381.477C231.088 392.396 231.967 394.66 232.48 394.626C233.334 394.566 233.906 388.09 233.59 381.998C233.035 371.276 230.046 368.286 230.251 359.657C230.336 355.872 230.977 353.617 232.608 347.397C232.608 347.397 238.015 326.773 242.413 306.884C245.83 291.599 246.103 286.524 246.205 283.953C246.418 277.183 245.935 270.41 244.762 263.739C241.115 241.056 232.83 220.244 231.37 220.628Z" fill="#919191"/>
<path d="M226.535 219.697C220.326 242.149 223.597 265.439 227.928 287.908C228.081 288.72 229.32 288.378 229.157 287.567C224.887 265.354 221.624 242.286 227.774 220.073C227.819 219.909 227.797 219.733 227.713 219.585C227.629 219.437 227.49 219.328 227.325 219.283C227.161 219.237 226.986 219.259 226.837 219.343C226.689 219.427 226.581 219.567 226.535 219.731V219.697Z" fill="black"/>
<path d="M229.482 285.422C227.227 289.053 227.005 293.111 226.681 297.264C226.237 303.085 225.798 308.906 225.365 314.727L222.658 350.473C222.598 351.327 223.879 351.327 223.939 350.473L226.39 318.05L227.586 302.253C227.996 296.913 227.68 290.762 230.592 286.072C231.028 285.371 229.918 284.722 229.482 285.422Z" fill="black"/>
<path d="M232.19 219.68C240.881 239.585 245.296 261.095 245.146 282.816C245.146 282.986 245.214 283.149 245.334 283.27C245.454 283.39 245.617 283.457 245.787 283.457C245.957 283.457 246.12 283.39 246.24 283.27C246.36 283.149 246.428 282.986 246.428 282.816C246.569 260.868 242.093 239.136 233.291 219.03C232.967 218.279 231.856 218.928 232.19 219.68Z" fill="black"/>
<path d="M246.189 285.961C240.939 309.347 235.504 332.699 229.884 356.018C229.696 356.821 230.926 357.162 231.122 356.359C236.742 333.052 242.177 309.7 247.427 286.302C247.607 285.499 246.368 285.157 246.189 285.961Z" fill="black"/>
<path d="M222.103 350.84C220.54 355.676 218.003 360.007 215.697 364.51C214.151 367.534 211.426 372.028 211.64 375.505C211.99 381.725 218.08 371.447 218.652 370.037C218.968 369.268 217.73 368.935 217.422 369.696C217.277 370.037 215.833 373.762 215.048 374.121C212.981 375.078 213.459 373.053 213.826 371.943C214.819 369.177 216.03 366.494 217.448 363.92C219.634 359.751 221.881 355.676 223.341 351.182C223.597 350.396 222.359 350.063 222.103 350.84Z" fill="black"/>
<path d="M230.362 356.334C228.5 368.235 234.41 379.555 233.086 391.439C232.993 392.293 234.274 392.293 234.368 391.439C235.683 379.666 229.755 368.431 231.592 356.675C231.72 355.864 230.49 355.522 230.362 356.334Z" fill="black"/>
<path d="M217.678 369.602C217.601 375.881 216.201 381.93 214.877 388.039C214.484 389.867 211.93 396.317 213.869 397.941C217.755 401.204 221.556 383.57 221.855 381.879C222.008 381.076 220.779 380.734 220.616 381.546C219.951 385.066 218.982 388.522 217.721 391.875C217.473 392.507 216.064 398.231 214.885 394.566C214.501 393.344 215.68 390.431 215.953 389.149C217.336 382.656 218.882 376.266 218.959 369.602C218.959 369.432 218.892 369.269 218.772 369.149C218.652 369.028 218.489 368.961 218.319 368.961C218.149 368.961 217.986 369.028 217.866 369.149C217.746 369.269 217.678 369.432 217.678 369.602Z" fill="black"/>
<path d="M220.856 383.425C220.42 385.45 216.542 400.777 221.71 399.906C224.11 399.504 226.254 394.216 227.031 392.396C228.547 388.782 229.256 384.881 229.106 380.965C229.106 380.11 227.799 380.11 227.825 380.965C228.037 386.083 226.697 391.146 223.982 395.489L223.315 396.488C222.53 398.624 221.838 398.846 221.24 397.137C220.241 395.967 220.488 394.668 220.574 393.259C220.852 390.071 221.372 386.91 222.128 383.801C222.299 382.998 221.06 382.656 220.89 383.459L220.856 383.425Z" fill="black"/>
<path d="M221.949 398.419C224.594 392.659 225.947 386.389 225.912 380.05C225.912 379.88 225.845 379.718 225.724 379.597C225.604 379.477 225.441 379.41 225.271 379.41C225.102 379.41 224.939 379.477 224.818 379.597C224.698 379.718 224.631 379.88 224.631 380.05C224.678 386.162 223.386 392.21 220.847 397.77C220.505 398.513 221.607 399.171 221.949 398.419Z" fill="black"/>
<path d="M228.875 381.477L229.73 390.251C229.849 391.593 229.55 393.942 230.737 394.942C231.102 395.193 231.533 395.332 231.976 395.343C232.418 395.354 232.855 395.235 233.231 395.002C234.709 394.147 234.743 392.362 234.683 390.858C234.683 390.004 233.368 390.004 233.402 390.858C233.676 392.122 232.97 392.894 231.284 393.173L231.096 391.225L230.823 388.303L230.191 381.469C230.114 380.614 228.833 380.614 228.91 381.469L228.875 381.477Z" fill="black"/>
<path d="M195.164 208.402C192.38 208.718 182.822 209.812 177.962 205.779C171.377 200.329 174.862 186.719 175.332 184.976C173.863 183.088 169.071 176.432 170.062 167.889C171.266 157.474 180.482 148.461 192.969 146.282C194.788 143.95 199.469 138.644 206.404 137.858C216.696 136.679 228.44 145.847 232.207 161.037C239.894 163.993 251.595 169.931 260.393 181.541C263.724 185.95 267.226 190.726 267.499 197.347C267.747 203.327 265.065 204.566 263.288 213.939C261.264 224.601 264.433 228.71 261.178 232.384C256.831 237.279 247.034 235.118 246.206 234.947C232.361 231.718 225.135 216.151 212.844 210.017C211.063 209.115 209.174 208.44 207.224 208.009C202.27 206.933 198.982 207.967 195.164 208.402Z" fill="#461EB8"/>
<path d="M183.318 162.592C181.682 165.187 180.524 168.055 179.901 171.059C178.805 171.196 177.751 171.566 176.81 172.144C175.101 173.212 172.761 175.655 173.248 178.338C173.735 181.02 176.852 183.242 180.627 182.849C182.624 189.787 186.972 195.813 192.927 199.893L193.687 209.607C194.675 210.439 195.845 211.024 197.103 211.316C201.254 212.238 204.611 209.368 205.055 208.975L205.815 199.739C207.579 198.38 209.21 196.855 210.684 195.186C213.869 191.562 216.281 187.326 217.773 182.738C219.141 183.657 220.816 184 222.436 183.694C225.622 182.934 227.877 179.047 226.895 175.629C226.48 174.356 225.7 173.233 224.652 172.399C223.605 171.565 222.335 171.057 221.001 170.939C218.898 166.987 216.063 163.47 212.648 160.576C209.103 157.603 201.587 151.28 193.755 153.442C188.101 154.997 184.821 160.2 183.318 162.592Z" fill="white"/>
<path opacity="0.36" d="M187.921 157.295C186.624 160.204 185.719 163.272 185.231 166.419C183.685 176.407 185.649 192.238 195.771 196.809C197.564 197.612 201.22 198.799 206.925 197.424C206.304 199.577 205.217 201.567 203.741 203.253C202.265 204.939 200.436 206.28 198.384 207.181C198.273 208.59 198.171 210 198.068 211.401L193.892 209.616C193.726 206.432 193.57 203.248 193.422 200.064C191.173 198.637 189.128 196.912 187.341 194.938C184.306 191.584 182.067 187.589 180.79 183.25C175.793 183.079 172.812 179.226 173.325 176.484C173.709 174.467 176.058 172.699 179.004 172.289C179.278 169.286 180.218 166.383 181.756 163.79C183.294 161.198 185.392 158.982 187.896 157.303L187.921 157.295Z" fill="#919191"/>
<path d="M181.302 163.395C178.346 170.841 178.411 179.147 181.483 186.545C184.555 193.944 190.392 199.852 197.752 203.011C198.495 203.345 199.153 202.234 198.401 201.909C191.288 198.887 185.643 193.196 182.678 186.058C179.713 178.919 179.663 170.903 182.541 163.728C182.831 162.959 181.601 162.626 181.302 163.395Z" fill="black"/>
<path d="M198.64 203.234C214.809 198.962 220.19 181.823 219.37 166.787C219.327 165.932 218.046 165.932 218.088 166.787C218.874 181.234 213.946 197.885 198.299 201.995C198.217 202.017 198.141 202.055 198.075 202.107C198.008 202.159 197.953 202.224 197.911 202.297C197.869 202.37 197.842 202.451 197.832 202.535C197.822 202.619 197.828 202.704 197.85 202.785C197.873 202.866 197.911 202.942 197.963 203.009C198.015 203.076 198.079 203.131 198.152 203.173C198.226 203.215 198.307 203.241 198.39 203.252C198.474 203.262 198.559 203.256 198.64 203.234Z" fill="black"/>
<path d="M192.303 199.893L193.063 209.607C193.131 210.461 194.413 210.461 194.344 209.607L193.584 199.893C193.516 199.039 192.235 199.039 192.303 199.893Z" fill="black"/>
<path d="M193.465 210.034C196.471 213.452 202.493 212.127 205.508 209.402C206.123 208.847 205.209 207.941 204.602 208.496C202.1 210.76 196.915 211.974 194.353 209.129C193.806 208.505 192.901 209.41 193.448 210.034H193.465Z" fill="black"/>
<path d="M205.132 199.739L204.901 208.223C204.901 209.077 206.156 209.077 206.182 208.223L206.413 199.739C206.413 199.569 206.345 199.406 206.225 199.286C206.105 199.166 205.942 199.098 205.772 199.098C205.602 199.098 205.439 199.166 205.319 199.286C205.199 199.406 205.132 199.569 205.132 199.739Z" fill="black"/>
<path d="M180.474 182.225C179.165 182.605 177.761 182.46 176.558 181.822C175.354 181.184 174.446 180.103 174.025 178.808C173.248 176.116 174.879 172.588 177.954 172.699C178.808 172.699 178.808 171.443 177.954 171.417C174.239 171.289 172.018 175.177 172.65 178.551C172.839 179.423 173.204 180.247 173.724 180.972C174.244 181.697 174.908 182.308 175.673 182.766C176.439 183.224 177.29 183.52 178.174 183.636C179.059 183.751 179.958 183.684 180.815 183.438C180.979 183.393 181.119 183.284 181.203 183.136C181.287 182.988 181.309 182.812 181.264 182.648C181.218 182.484 181.11 182.344 180.961 182.26C180.813 182.176 180.638 182.154 180.474 182.199V182.225Z" fill="black"/>
<path d="M217.285 183.19C220.702 187.103 225.664 182.943 226.963 179.235C228.329 175.322 226.758 168.846 221.462 170.093C220.659 170.281 220.992 171.52 221.795 171.332C226.211 170.29 226.74 176.074 225.724 178.893C224.708 181.712 220.967 185.454 218.191 182.31C217.653 181.687 216.747 182.601 217.285 183.216V183.19Z" fill="black"/>
<path d="M197.957 163.557C197.521 169.7 196.249 176.638 197.462 182.72C197.581 183.319 198.316 183.267 198.632 182.874C199.546 181.675 200.366 180.407 201.083 179.081C201.476 178.355 200.374 177.705 199.981 178.432C199.261 179.756 198.441 181.024 197.53 182.225L198.7 182.379C197.513 176.441 198.811 169.563 199.238 163.583C199.298 162.729 198.017 162.729 197.957 163.583V163.557Z" fill="black"/>
<path d="M192.354 185.215C194.744 186.608 197.568 187.059 200.272 186.479C202.977 185.899 205.368 184.33 206.977 182.08C207.481 181.422 206.37 180.781 205.875 181.43C204.437 183.386 202.324 184.738 199.946 185.224C197.568 185.71 195.094 185.296 193.004 184.062C192.286 183.66 191.637 184.771 192.354 185.173V185.215Z" fill="black"/>
<path d="M186.896 176.168C187.066 176.168 187.229 176.1 187.349 175.98C187.47 175.86 187.537 175.697 187.537 175.527C187.537 175.357 187.47 175.194 187.349 175.074C187.229 174.954 187.066 174.886 186.896 174.886C186.727 174.886 186.564 174.954 186.443 175.074C186.323 175.194 186.256 175.357 186.256 175.527C186.256 175.697 186.323 175.86 186.443 175.98C186.564 176.1 186.727 176.168 186.896 176.168Z" fill="black"/>
<path d="M190.996 176.338C191.166 176.338 191.329 176.271 191.449 176.151C191.569 176.031 191.637 175.868 191.637 175.698C191.637 175.528 191.569 175.365 191.449 175.245C191.329 175.124 191.166 175.057 190.996 175.057C190.826 175.057 190.663 175.124 190.543 175.245C190.423 175.365 190.355 175.528 190.355 175.698C190.355 175.868 190.423 176.031 190.543 176.151C190.663 176.271 190.826 176.338 190.996 176.338Z" fill="black"/>
<path d="M189.63 180.26C189.8 180.26 189.963 180.192 190.083 180.072C190.203 179.952 190.27 179.789 190.27 179.619C190.27 179.449 190.203 179.286 190.083 179.166C189.963 179.046 189.8 178.978 189.63 178.978C189.46 178.978 189.297 179.046 189.177 179.166C189.057 179.286 188.989 179.449 188.989 179.619C188.989 179.789 189.057 179.952 189.177 180.072C189.297 180.192 189.46 180.26 189.63 180.26Z" fill="black"/>
<path d="M205.345 175.817C205.515 175.817 205.678 175.75 205.798 175.63C205.918 175.509 205.986 175.347 205.986 175.177C205.986 175.007 205.918 174.844 205.798 174.723C205.678 174.603 205.515 174.536 205.345 174.536C205.175 174.536 205.012 174.603 204.892 174.723C204.772 174.844 204.705 175.007 204.705 175.177C204.705 175.347 204.772 175.509 204.892 175.63C205.012 175.75 205.175 175.817 205.345 175.817Z" fill="black"/>
<path d="M210.461 174.963C210.631 174.963 210.794 174.895 210.914 174.775C211.034 174.655 211.102 174.492 211.102 174.322C211.102 174.152 211.034 173.989 210.914 173.869C210.794 173.749 210.631 173.681 210.461 173.681C210.291 173.681 210.129 173.749 210.008 173.869C209.888 173.989 209.821 174.152 209.821 174.322C209.821 174.492 209.888 174.655 210.008 174.775C210.129 174.895 210.291 174.963 210.461 174.963Z" fill="black"/>
<path d="M208.241 178.21C208.411 178.21 208.574 178.142 208.694 178.022C208.814 177.902 208.881 177.739 208.881 177.569C208.881 177.399 208.814 177.236 208.694 177.116C208.574 176.996 208.411 176.928 208.241 176.928C208.071 176.928 207.908 176.996 207.788 177.116C207.668 177.236 207.6 177.399 207.6 177.569C207.6 177.739 207.668 177.902 207.788 178.022C207.908 178.142 208.071 178.21 208.241 178.21Z" fill="black"/>
<path d="M188.656 158.807C190.005 156.757 192.858 155.39 194.737 157.671C195.267 158.303 196.164 157.389 195.643 156.765C193.217 153.869 189.322 155.467 187.554 158.166C187.102 158.858 188.212 159.499 188.656 158.807Z" fill="black"/>
<path d="M205.892 158.098C207.523 154.783 211.205 157.167 212.52 159.303C212.956 160.003 214.066 159.363 213.63 158.653C212.614 157.013 211.119 155.492 209.112 155.236C208.251 155.11 207.372 155.255 206.598 155.651C205.823 156.048 205.191 156.676 204.79 157.449C204.423 158.192 205.533 158.841 205.892 158.098Z" fill="black"/>
<path d="M191.97 170.537C192.508 170.537 192.943 169.13 192.943 167.393C192.943 165.657 192.508 164.249 191.97 164.249C191.432 164.249 190.996 165.657 190.996 167.393C190.996 169.13 191.432 170.537 191.97 170.537Z" fill="black"/>
<path d="M206.43 170.537C206.967 170.537 207.403 169.13 207.403 167.393C207.403 165.657 206.967 164.249 206.43 164.249C205.892 164.249 205.456 165.657 205.456 167.393C205.456 169.13 205.892 170.537 206.43 170.537Z" fill="black"/>
<path d="M198.982 147.624C197.547 149.196 198.41 152.1 198.982 154.04C202.398 165.522 216.619 174.109 221.01 170.973C223.999 168.829 222.675 161.071 219.694 156.176C214.399 147.504 201.937 144.309 198.982 147.624Z" fill="#461EB8"/>
<path d="M203.381 150.879C199.391 151.15 195.514 152.318 192.038 154.296C182.353 159.892 179.611 169.939 179.047 172.238C177.964 171.365 177.118 170.234 176.587 168.948C174.187 162.865 180.055 153.442 187.93 150.204C194.865 147.367 201.545 150.067 203.381 150.879Z" fill="#461EB8"/>
<path d="M79.9885 42.956C79.9305 43.246 79.7565 43.4973 79.4665 43.71C79.1959 43.9033 78.8092 44 78.3065 44C77.8812 44 77.5429 43.884 77.2915 43.652C77.0595 43.42 76.9339 43.1783 76.9145 42.927C77.0305 42.115 77.0885 40.897 77.0885 39.273C77.0885 38.3063 77.0305 36.8177 76.9145 34.807C76.7792 32.9123 76.7115 31.2303 76.7115 29.761C76.7115 28.9683 76.7502 28.1563 76.8275 27.325C76.8275 27.0543 76.9822 26.7643 77.2915 26.455C77.6202 26.1457 78.0649 25.9523 78.6255 25.875C80.4622 25.6817 82.7145 25.585 85.3825 25.585H86.3105C87.0065 25.585 87.6832 25.7107 88.3405 25.962C89.0172 26.2133 89.3555 26.6483 89.3555 27.267C89.3555 27.673 89.2589 27.992 89.0655 28.224C88.8722 28.456 88.5145 28.572 87.9925 28.572C87.7412 28.572 87.4512 28.5527 87.1225 28.514C86.7939 28.4753 86.5619 28.4463 86.4265 28.427C85.6919 28.311 85.1215 28.253 84.7155 28.253C82.4729 28.253 80.7812 28.4077 79.6405 28.717C79.6405 29.355 79.6599 30.3893 79.6985 31.82L79.7275 33.676C80.7329 33.676 81.6319 33.6373 82.4245 33.56C83.2172 33.4633 83.6715 33.4053 83.7875 33.386C84.7929 33.27 85.4599 33.212 85.7885 33.212C86.2525 33.212 86.6392 33.3183 86.9485 33.531C87.2772 33.7243 87.4415 34.0337 87.4415 34.459C87.4415 35.4257 86.7649 35.909 85.4115 35.909C85.0829 35.909 84.7929 35.9187 84.5415 35.938C84.2902 35.9573 84.0775 35.9767 83.9035 35.996C83.2075 36.0733 82.6565 36.112 82.2505 36.112C81.3612 36.112 80.6072 36.141 79.9885 36.199C79.9885 36.9143 80.0175 37.6683 80.0755 38.461C80.0755 38.7123 80.0852 39.099 80.1045 39.621C80.1432 40.143 80.1625 40.6167 80.1625 41.042C80.1625 41.4093 80.1529 41.7477 80.1335 42.057C80.1142 42.3663 80.0659 42.666 79.9885 42.956ZM103.869 43.565C103.618 43.2363 103.405 42.8787 103.231 42.492C103.057 42.086 102.873 41.6027 102.68 41.042C102.641 40.9453 102.525 40.6553 102.332 40.172C102.158 39.6887 101.955 39.273 101.723 38.925C100.505 39.099 99.5095 39.186 98.7361 39.186C98.3108 39.186 97.8371 39.1763 97.3151 39.157C96.8125 39.1183 96.4355 39.099 96.1841 39.099C95.2175 39.0217 94.4441 38.983 93.8641 38.983C93.6321 39.2923 93.4291 39.621 93.2551 39.969C93.1005 40.317 92.8975 40.839 92.6461 41.535C92.2981 42.5403 91.9985 43.2557 91.7471 43.681C91.5731 43.971 91.2348 44.116 90.7321 44.116C90.3068 44.116 89.9105 44.029 89.5431 43.855C89.1951 43.6617 89.0211 43.4007 89.0211 43.072C89.1758 42.3373 89.4175 41.564 89.7461 40.752C90.0941 39.9207 90.5871 38.8187 91.2251 37.446L92.3851 34.604C93.0231 32.98 93.6031 31.588 94.1251 30.428C94.6665 29.268 95.3721 27.8953 96.2421 26.31C96.3581 26.078 96.5515 25.8847 96.8221 25.73C97.0928 25.556 97.3925 25.469 97.7211 25.469C98.0885 25.469 98.3495 25.498 98.5041 25.556C98.6781 25.5947 98.8135 25.672 98.9101 25.788C99.0068 25.8847 99.1518 26.0973 99.3451 26.426C100.002 27.4507 100.563 28.5043 101.027 29.587C101.51 30.6697 102.119 32.168 102.854 34.082L103.463 35.619C104.004 37.011 104.468 38.1807 104.855 39.128C105.261 40.056 105.706 40.9067 106.189 41.68C106.498 42.1827 106.653 42.5307 106.653 42.724C106.653 43.188 106.508 43.5457 106.218 43.797C105.947 44.029 105.59 44.145 105.145 44.145C104.584 44.145 104.159 43.9517 103.869 43.565ZM100.882 36.547C100.573 35.8897 100.128 34.749 99.5481 33.125C98.9488 31.385 98.3495 30.0027 97.7501 28.978C97.3828 29.906 96.8415 31.1047 96.1261 32.574C95.6428 33.4827 95.0918 34.7973 94.4731 36.518C95.7105 36.6727 97.0445 36.75 98.4751 36.75C99.4998 36.75 100.302 36.6823 100.882 36.547ZM122.593 45.682C122.032 45.1793 121.346 44.4737 120.534 43.565C119.625 43.913 118.804 44.087 118.069 44.087C116.793 44.087 115.614 43.9323 114.531 43.623C113.468 43.2943 112.598 42.8207 111.921 42.202C110.684 41.1 109.814 39.8917 109.311 38.577C108.808 37.2623 108.557 35.59 108.557 33.56C108.557 33.1347 108.625 32.7383 108.76 32.371C108.895 32.0037 109.089 31.5783 109.34 31.095C109.379 30.9983 109.475 30.7953 109.63 30.486C109.785 30.1573 109.881 29.8577 109.92 29.587C110.307 28.9103 110.925 28.2627 111.776 27.644C112.646 27.006 113.584 26.5033 114.589 26.136C115.594 25.7493 116.484 25.556 117.257 25.556C121.008 25.556 123.676 26.8417 125.261 29.413C126.189 30.8823 126.653 32.3903 126.653 33.937C126.653 35.8317 126.324 37.504 125.667 38.954C125.01 40.3847 124.091 41.506 122.912 42.318C123.647 43.0913 124.207 43.6327 124.594 43.942C124.729 44.058 124.874 44.1643 125.029 44.261C125.203 44.3577 125.319 44.4253 125.377 44.464C125.609 44.6187 125.773 44.7443 125.87 44.841C125.986 44.9377 126.054 45.0537 126.073 45.189C126.092 45.5757 126.005 45.9237 125.812 46.233C125.619 46.5423 125.222 46.697 124.623 46.697C124.12 46.697 123.734 46.6197 123.463 46.465C123.212 46.3297 123.018 46.175 122.883 46.001C122.748 45.8463 122.651 45.74 122.593 45.682ZM114.531 40.665C115.285 40.955 115.817 41.1483 116.126 41.245C116.455 41.3223 116.803 41.361 117.17 41.361C117.634 41.361 118.069 41.332 118.475 41.274C118.088 40.81 117.595 40.2783 116.996 39.679C116.59 39.273 116.387 38.8573 116.387 38.432C116.387 38.1807 116.493 37.939 116.706 37.707C116.919 37.475 117.189 37.3493 117.518 37.33C117.866 37.3107 118.166 37.3783 118.417 37.533C118.668 37.6683 118.958 37.91 119.287 38.258L121.056 40.23C121.868 39.6887 122.506 38.9927 122.97 38.142C123.434 37.272 123.666 36.3343 123.666 35.329C123.666 33.8597 123.492 32.6997 123.144 31.849C122.796 30.9983 122.187 30.225 121.317 29.529C120.872 29.1617 120.302 28.891 119.606 28.717C118.929 28.543 118.195 28.456 117.402 28.456C116.242 28.456 115.217 28.746 114.328 29.326C113.439 29.8867 112.752 30.6793 112.269 31.704C111.805 32.7287 111.573 33.8983 111.573 35.213C111.554 36.3343 111.805 37.33 112.327 38.2C112.849 39.07 113.584 39.8917 114.531 40.665ZM143.201 38.751C143.201 39.6597 142.989 40.4427 142.563 41.1C142.157 41.738 141.481 42.3277 140.533 42.869C139.895 43.2557 139.151 43.5457 138.3 43.739C137.45 43.9323 136.589 44.029 135.719 44.029C134.83 44.029 133.728 43.739 132.413 43.159C131.466 42.695 130.712 42.144 130.151 41.506C129.61 40.868 129.339 40.172 129.339 39.418C129.339 38.896 129.455 38.519 129.687 38.287C129.919 38.0357 130.296 37.91 130.818 37.91C131.089 37.91 131.369 38.026 131.659 38.258C131.949 38.4707 132.123 38.6833 132.181 38.896C132.452 39.6887 132.926 40.2977 133.602 40.723C134.279 41.129 135.12 41.332 136.125 41.332C137.285 41.332 138.252 41.1193 139.025 40.694C139.818 40.2687 140.214 39.6983 140.214 38.983C140.214 38.287 139.789 37.6683 138.938 37.127C138.088 36.5857 137.218 36.2087 136.328 35.996C135.052 35.648 133.921 35.2323 132.935 34.749C131.911 34.2463 131.147 33.6277 130.644 32.893C130.142 32.1583 129.89 31.385 129.89 30.573C129.89 29.819 130.151 29.0553 130.673 28.282C131.195 27.4893 131.814 26.919 132.529 26.571C132.916 26.3777 133.573 26.1747 134.501 25.962C135.449 25.73 136.135 25.614 136.56 25.614C137.102 25.614 137.672 25.6817 138.271 25.817C138.871 25.9523 139.383 26.1457 139.808 26.397C140.659 26.8803 141.287 27.3153 141.693 27.702C142.099 28.0887 142.302 28.572 142.302 29.152C142.302 29.5 142.167 29.8093 141.896 30.08C141.645 30.3507 141.2 30.486 140.562 30.486C140.408 30.486 140.253 30.4183 140.098 30.283C139.944 30.1477 139.75 29.9447 139.518 29.674C139.209 29.268 138.909 28.9973 138.619 28.862C138.31 28.746 137.923 28.6397 137.459 28.543C136.995 28.427 136.56 28.369 136.154 28.369C135.69 28.369 135.207 28.4657 134.704 28.659C134.202 28.8523 133.776 29.1327 133.428 29.5C133.1 29.848 132.935 30.254 132.935 30.718C132.935 31.1047 133.109 31.443 133.457 31.733C133.825 32.0037 134.26 32.226 134.762 32.4C135.342 32.632 135.971 32.835 136.647 33.009C137.537 33.2797 138.262 33.531 138.822 33.763C139.402 33.9757 139.963 34.2463 140.504 34.575C141.452 35.1357 142.138 35.7157 142.563 36.315C142.989 36.895 143.201 37.707 143.201 38.751Z" fill="black"/>
</g>
<defs>
<clipPath id="clip0">
<rect width="433" height="420" fill="white"/>
</clipPath>
</defs>
</svg>
